<?xml version="1.0" encoding="UTF-8"?>
<!DOCTYPE svg PUBLIC "-//W3C//DTD SVG 1.1//EN" "http://www.w3.org/Graphics/SVG/1.1/DTD/svg11.dtd">
<svg xmlns="http://www.w3.org/2000/svg" version="1.1" width="419px" height="115px" style="shape-rendering:geometricPrecision; text-rendering:geometricPrecision; image-rendering:optimizeQuality; fill-rule:evenodd; clip-rule:evenodd" xmlns:xlink="http://www.w3.org/1999/xlink">
<g><path style="opacity:0.995" fill="#e3e8ef" d="M 78.5,29.5 C 81.1873,29.3359 83.854,29.5026 86.5,30C 90.1933,32.4963 94.1933,34.163 98.5,35C 96.6312,38.6357 94.2979,41.9691 91.5,45C 95.1135,45.7319 96.6135,47.8986 96,51.5C 92.2583,61.1673 87.425,70.0007 81.5,78C 108.763,85.3246 123.096,103.158 124.5,131.5C 125.322,150.688 117.988,165.855 102.5,177C 105.874,180.887 109.374,184.72 113,188.5C 113.944,191.347 113.444,193.847 111.5,196C 83.1686,196.5 54.8353,196.667 26.5,196.5C 26.3409,188.662 29.3409,182.329 35.5,177.5C 24.2306,168.619 16.7306,157.286 13,143.5C 11.0438,143.216 8.87713,143.216 6.5,143.5C 6.5,138.167 6.5,132.833 6.5,127.5C 24.1698,127.333 41.8365,127.5 59.5,128C 60.8333,132.667 60.8333,137.333 59.5,142C 52.5067,143.371 45.5067,143.871 38.5,143.5C 49.4902,163.211 65.1569,167.711 85.5,157C 99.8608,144.953 102.361,130.786 93,114.5C 87.0069,108.587 79.8402,104.92 71.5,103.5C 67.5958,106.921 64.5958,111.088 62.5,116C 60.1667,116.333 57.8333,116.667 55.5,117C 53.982,118.848 52.1487,120.348 50,121.5C 43.3625,121.263 37.8625,118.43 33.5,113C 34.3632,110.773 35.3632,108.607 36.5,106.5C 35.1667,104.5 33.8333,102.5 32.5,100.5C 44.5439,79.0768 56.0439,57.4101 67,35.5C 68.6667,34.5 70.3333,33.5 72,32.5C 72.49,33.7932 72.6567,35.1266 72.5,36.5C 73.8221,36.67 74.9887,36.3366 76,35.5C 76.9383,33.5115 77.7717,31.5115 78.5,29.5 Z M 69.5,174.5 C 75.0226,174.562 76.856,177.229 75,182.5C 70.5014,186.9 67.0014,186.233 64.5,180.5C 65.2468,177.639 66.9135,175.639 69.5,174.5 Z"/></g>
<g><path style="opacity:0.016" fill="#fefffe" d="M 123.5,29.5 C 124.525,29.8966 124.692,30.5632 124,31.5C 123.536,30.9056 123.369,30.2389 123.5,29.5 Z"/></g>
<g><path style="opacity:0.949" fill="#6aa4ed" d="M 166.5,31.5 C 174.966,32.8842 183.3,34.0509 191.5,35C 196.237,40.1179 197.737,45.9512 196,52.5C 192.692,54.9925 189.192,55.1592 185.5,53C 182.252,48.7943 178.085,45.961 173,44.5C 166.934,47.9665 167.434,50.7999 174.5,53C 182.528,54.2635 189.361,57.7635 195,63.5C 201.425,80.8133 195.591,91.6466 177.5,96C 167.592,97.1825 157.925,96.1825 148.5,93C 144.479,90.3228 142.313,86.4895 142,81.5C 141.333,78.5 141.333,75.5 142,72.5C 144.121,70.5426 146.621,70.0426 149.5,71C 151.918,75.506 155.251,79.1727 159.5,82C 162.738,83.3677 166.072,83.7011 169.5,83C 172.915,81.8567 173.249,80.19 170.5,78C 163.001,75.6168 156.001,72.2835 149.5,68C 139.873,56.4336 140.873,45.767 152.5,36C 157.086,33.8614 161.753,32.3614 166.5,31.5 Z"/></g>
<g><path style="opacity:0.946" fill="#6aa4ed" d="M 506.5,31.5 C 511.914,30.7791 516.747,32.1124 521,35.5C 530.788,50.7389 539.288,66.7389 546.5,83.5C 547.912,84.8064 549.579,85.6397 551.5,86C 552.126,86.7504 552.626,87.5838 553,88.5C 554.32,86.1829 555.986,84.1829 558,82.5C 559.724,70.821 559.724,59.1543 558,47.5C 555.084,45.2491 552.917,42.4157 551.5,39C 552.287,35.9325 554.287,34.2658 557.5,34C 567.631,31.7094 577.631,32.0428 587.5,35C 588.777,37.4659 588.777,39.9659 587.5,42.5C 585.259,43.0318 583.759,44.3651 583,46.5C 581.156,58.1557 581.156,69.8224 583,81.5C 584.262,83.3028 585.929,84.6361 588,85.5C 589.954,90.9783 588.121,94.1449 582.5,95C 573.827,96.9564 565.16,96.9564 556.5,95C 554.667,94.5 553.5,93.3333 553,91.5C 550.552,94.4735 547.386,95.9735 543.5,96C 534.787,96.7976 526.12,96.4643 517.5,95C 513.122,90.5476 513.789,86.8809 519.5,84C 518.833,83.3333 518.167,82.6667 517.5,82C 511.472,81.1697 505.472,81.3364 499.5,82.5C 499.167,83.1667 498.833,83.8333 498.5,84.5C 502.857,85.9477 504.357,88.9477 503,93.5C 494.742,96.9105 486.242,97.4105 477.5,95C 475.813,93.087 475.313,90.9203 476,88.5C 479.417,86.2932 482.417,83.6266 485,80.5C 489.608,70.9516 493.941,61.285 498,51.5C 499.061,46.8958 499.727,42.2291 500,37.5C 501.494,34.6865 503.66,32.6865 506.5,31.5 Z M 507.5,58.5 C 510.837,60.5277 513.17,63.5277 514.5,67.5C 511.232,68.487 507.898,68.8204 504.5,68.5C 505.099,65.0369 506.099,61.7036 507.5,58.5 Z"/></g>
<g><path style="opacity:0.969" fill="#6aa4ed" d="M 617.5,32.5 C 630.158,33.3926 642.825,33.5593 655.5,33C 668.697,34.5299 673.53,41.6966 670,54.5C 668.878,56.6238 667.378,58.4571 665.5,60C 676.526,66.0812 679.36,74.9146 674,86.5C 670.908,90.9279 666.741,93.7612 661.5,95C 645.833,95.6667 630.167,95.6667 614.5,95C 611.571,91.0672 612.071,87.5672 616,84.5C 617.044,82.2852 617.71,79.9519 618,77.5C 618.343,69.4891 618.843,61.4891 619.5,53.5C 620.257,47.7247 618.091,43.7247 613,41.5C 611.422,36.7863 612.922,33.7863 617.5,32.5 Z M 642.5,43.5 C 646.722,44.0707 648.722,46.5707 648.5,51C 648.643,54.5568 647.143,57.0568 644,58.5C 643.228,58.3552 642.561,58.0219 642,57.5C 641.227,52.7481 641.393,48.0815 642.5,43.5 Z M 642.5,69.5 C 649.382,69.8865 651.882,73.5532 650,80.5C 647.671,85.2614 645.005,85.5947 642,81.5C 641.238,77.4126 641.404,73.4126 642.5,69.5 Z"/></g>
<g><path style="opacity:0.957" fill="#e1e8f0" d="M 375.5,33.5 C 379.273,33.2633 382.94,33.7633 386.5,35C 389.864,37.5331 390.197,40.3664 387.5,43.5C 381.083,48.3412 374.083,49.5079 366.5,47C 364.04,44.6861 363.54,42.1861 365,39.5C 368.069,36.5545 371.569,34.5545 375.5,33.5 Z"/></g>
<g><path style="opacity:0.981" fill="#e1e7ef" d="M 440.5,33.5 C 443.119,33.2317 445.619,33.565 448,34.5C 448.333,49.5 448.667,64.5 449,79.5C 450.021,82.7526 451.521,85.7526 453.5,88.5C 452.384,91.7412 450.051,93.5746 446.5,94C 441.246,95.2712 435.913,95.7712 430.5,95.5C 430.5,94.1667 430.5,92.8333 430.5,91.5C 416.681,99.6686 405.848,96.6686 398,82.5C 393.435,64.9091 399.935,53.9091 417.5,49.5C 420.998,49.9984 424.332,50.9984 427.5,52.5C 428.833,50.5 428.833,48.5 427.5,46.5C 421.925,44.6327 421.259,41.7993 425.5,38C 430.577,36.32 435.577,34.82 440.5,33.5 Z M 422.5,60.5 C 424.722,60.178 426.556,60.8446 428,62.5C 429.532,68.3992 429.532,74.3992 428,80.5C 426.155,84.7948 423.488,85.4615 420,82.5C 418.494,77.2545 418.161,71.9212 419,66.5C 419.564,64.1133 420.73,62.1133 422.5,60.5 Z"/></g>
<g><path style="opacity:0.984" fill="#e1e7ef" d="M 696.5,33.5 C 698.857,33.3367 701.19,33.5034 703.5,34C 704.126,34.7504 704.626,35.5838 705,36.5C 704.464,52.8134 704.464,69.1467 705,85.5C 710.947,88.9909 710.781,92.1575 704.5,95C 697.5,95.6667 690.5,95.6667 683.5,95C 677.153,91.7818 676.986,88.2818 683,84.5C 684.883,73.1578 684.883,61.8245 683,50.5C 681.622,48.7866 679.955,47.4533 678,46.5C 676.42,41.4038 678.254,38.2371 683.5,37C 687.974,35.8802 692.307,34.7135 696.5,33.5 Z"/></g>
<g><path style="opacity:0.08" fill="#f8f8f8" d="M 123.5,36.5 C 124.634,38.9664 124.801,41.633 124,44.5C 122.187,41.9218 122.02,39.2551 123.5,36.5 Z"/></g>
<g><path style="opacity:0.983" fill="#e1e7ef" d="M 218.5,39.5 C 221.5,39.5 224.5,39.5 227.5,39.5C 227.5,42.8333 227.5,46.1667 227.5,49.5C 231.182,49.3347 234.848,49.5014 238.5,50C 241.091,53.2972 241.091,56.6306 238.5,60C 234.848,60.4986 231.182,60.6653 227.5,60.5C 227.075,67.6154 227.575,74.6154 229,81.5C 229.725,82.0585 230.558,82.3918 231.5,82.5C 238.346,78.8473 241.179,80.8473 240,88.5C 231.477,96.4728 221.977,97.9728 211.5,93C 209.641,91.4422 208.141,89.6089 207,87.5C 205.684,78.2178 205.184,68.8845 205.5,59.5C 198.4,61.2434 196.234,58.91 199,52.5C 205.824,48.5154 212.324,44.1821 218.5,39.5 Z"/></g>
<g><path style="opacity:0.971" fill="#e1e7ef" d="M 812.5,47.5 C 815.05,47.8844 816.383,49.3844 816.5,52C 816.318,55.5545 814.818,58.3878 812,60.5C 812.978,69.0468 809.478,74.8801 801.5,78C 795.879,79.8312 790.212,80.3312 784.5,79.5C 781.936,81.0187 781.936,82.5187 784.5,84C 792.817,83.649 801.151,83.649 809.5,84C 814.186,85.8572 816.519,89.3572 816.5,94.5C 816.129,99.741 813.795,103.908 809.5,107C 796.316,113.857 782.982,114.191 769.5,108C 764.257,103.255 764.257,98.5884 769.5,94C 763.842,87.6093 764.509,81.9426 771.5,77C 763.158,65.319 765.825,56.9856 779.5,52C 787.032,50.0474 794.532,50.214 802,52.5C 806.16,52.0015 809.66,50.3349 812.5,47.5 Z M 787.5,57.5 C 792.417,58.279 794.75,61.279 794.5,66.5C 793.809,73.439 790.975,74.7723 786,70.5C 783.764,65.8007 784.264,61.4674 787.5,57.5 Z M 779.5,98.5 C 785.176,98.3339 790.843,98.5006 796.5,99C 797.727,100.587 797.394,101.921 795.5,103C 790.388,104.86 785.388,104.527 780.5,102C 779.663,100.989 779.33,99.8221 779.5,98.5 Z"/></g>
<g><path style="opacity:0.981" fill="#e1e7ef" d="M 342.5,49.5 C 352.505,50.3355 358.672,55.6688 361,65.5C 363.623,82.2869 356.789,92.6203 340.5,96.5C 337.218,95.5123 333.885,94.8457 330.5,94.5C 330.372,96.6547 330.872,98.6547 332,100.5C 337.83,103.75 337.663,106.917 331.5,110C 322.862,111.274 314.528,110.274 306.5,107C 302.201,102.827 302.701,99.3273 308,96.5C 309.519,87.2193 309.853,77.886 309,68.5C 306.439,66.5753 304.272,64.242 302.5,61.5C 303.253,59.2466 304.586,57.4133 306.5,56C 313.68,51.9542 321.346,50.2875 329.5,51C 330.191,52.0674 330.691,53.2341 331,54.5C 334.641,52.0887 338.475,50.4221 342.5,49.5 Z M 332.5,63.5 C 337.803,64.7922 340.136,68.2922 339.5,74C 339.435,76.5912 338.935,79.0912 338,81.5C 334.778,84.3548 331.944,84.0215 329.5,80.5C 330.283,75.5527 330.783,70.5527 331,65.5C 331.717,64.9558 332.217,64.2891 332.5,63.5 Z"/></g>
<g><path style="opacity:0.978" fill="#e2e7ef" d="M 737.5,49.5 C 752.718,50.2228 761.385,58.0561 763.5,73C 762.312,83.5308 756.645,90.5308 746.5,94C 736.662,97.5817 727.328,96.5817 718.5,91C 707.863,79.6839 707.863,68.3506 718.5,57C 724.293,52.7977 730.627,50.2977 737.5,49.5 Z M 733.5,61.5 C 738.437,61.6675 740.937,64.3341 741,69.5C 742.244,73.7786 742.577,78.112 742,82.5C 740,85.1667 738,85.1667 736,82.5C 733.587,77.4281 732.087,72.0948 731.5,66.5C 731.437,64.4861 732.103,62.8194 733.5,61.5 Z"/></g>
<g><path style="opacity:0.976" fill="#e1e7ef" d="M 253.5,50.5 C 258.099,50.2 262.599,50.5333 267,51.5C 267.333,61.5 267.667,71.5 268,81.5C 270.549,85.2554 273.216,85.2554 276,81.5C 276.667,75.1667 276.667,68.8333 276,62.5C 274.903,60.9474 273.57,59.614 272,58.5C 271.333,57.1667 271.333,55.8333 272,54.5C 279.379,50.9005 287.212,49.7338 295.5,51C 296,51.5 296.5,52 297,52.5C 297.333,62.8333 297.667,73.1667 298,83.5C 302.781,85.8204 303.281,88.6538 299.5,92C 292.485,95.0159 285.152,96.1825 277.5,95.5C 277.509,93.6916 277.009,92.0249 276,90.5C 270.265,95.0883 263.765,96.5883 256.5,95C 251.901,93.4019 249.068,90.2353 248,85.5C 247.667,78.8333 247.333,72.1667 247,65.5C 245.36,62.3647 243.527,59.3647 241.5,56.5C 241.608,55.5581 241.941,54.7247 242.5,54C 246.161,52.4075 249.828,51.2408 253.5,50.5 Z"/></g>
<g><path style="opacity:0.973" fill="#e1e7ef" d="M 380.5,50.5 C 383.448,50.2229 386.281,50.5562 389,51.5C 389.333,62.1667 389.667,72.8333 390,83.5C 396.32,88.3616 395.82,92.1949 388.5,95C 380.754,95.8959 373.087,95.5625 365.5,94C 363.604,92.1917 363.104,90.025 364,87.5C 366,86.8333 367.333,85.5 368,83.5C 368.667,77.1667 368.667,70.8333 368,64.5C 363.999,63.1521 362.666,60.4854 364,56.5C 369.413,53.9763 374.913,51.9763 380.5,50.5 Z"/></g>
<g><path style="opacity:0.023" fill="#f0f0f0" d="M 123.5,51.5 C 124.641,54.6399 124.808,57.9733 124,61.5C 123.502,58.1832 123.335,54.8499 123.5,51.5 Z"/></g>
<g><path style="opacity:0.141" fill="#efefef" d="M 32.5,55.5 C 33.731,58.5022 33.0643,61.1689 30.5,63.5C 29.2485,61.9991 28.2485,60.3325 27.5,58.5C 29.1446,57.3037 30.8113,56.3037 32.5,55.5 Z"/></g>
<g><path style="opacity:0.151" fill="#e9e9e9" d="M 6.5,56.5 C 11.0565,59.1716 11.2232,61.8383 7,64.5C 6.50258,61.854 6.33591,59.1873 6.5,56.5 Z"/></g>
<g><path style="opacity:0.015" fill="#f3f3f3" d="M 95.5,68.5 C 97.1408,70.2029 98.1408,72.3695 98.5,75C 96.1913,75.7562 94.1913,75.2562 92.5,73.5C 93.7629,71.9713 94.7629,70.3046 95.5,68.5 Z"/></g>
<g><path style="opacity:0.085" fill="#f1f1f1" d="M 14.5,98.5 C 15.0967,98.7352 15.4301,99.2352 15.5,100C 14.5887,103.145 13.7554,106.312 13,109.5C 10.7635,110.056 8.76346,111.056 7,112.5C 6.33333,110.5 6.33333,108.5 7,106.5C 9.72975,104.033 12.2297,101.367 14.5,98.5 Z"/></g>
<g><path style="opacity:0.006" fill="#e6e6e6" d="M 26.5,118.5 C 28.337,118.639 28.6704,119.306 27.5,120.5C 26.7025,120.043 26.3691,119.376 26.5,118.5 Z"/></g>
<g><path style="opacity:0.955" fill="#6ba4ed" d="M 291.5,136.5 C 297.842,136.334 304.175,136.5 310.5,137C 317.34,136.83 320.173,139.997 319,146.5C 316.278,147.845 314.278,149.845 313,152.5C 312.884,163.882 312.217,175.215 311,186.5C 308.762,193.07 304.262,197.237 297.5,199C 287.129,201.593 277.129,200.593 267.5,196C 260.113,189.425 259.113,182.091 264.5,174C 277.118,169.143 283.451,173.476 283.5,187C 285.903,187.63 287.737,186.797 289,184.5C 290.804,173.872 290.804,163.205 289,152.5C 288.02,149.668 286.02,148.002 283,147.5C 281.521,140.481 284.354,136.814 291.5,136.5 Z"/></g>
<g><path style="opacity:0.964" fill="#6aa4ed" d="M 524.5,136.5 C 538.837,136.333 553.171,136.5 567.5,137C 580.093,139.926 587.593,147.76 590,160.5C 592.387,173.614 588.887,184.78 579.5,194C 575.719,196.225 571.719,197.891 567.5,199C 551.741,199.968 536.074,199.635 520.5,198C 519.398,195.599 519.231,193.099 520,190.5C 523.333,189.833 525.333,187.833 526,184.5C 526.189,173.787 526.689,163.12 527.5,152.5C 525.587,148.599 523.254,145.099 520.5,142C 520.901,139.44 522.234,137.607 524.5,136.5 Z M 551.5,147.5 C 559.791,148.363 564.291,153.029 565,161.5C 565.829,168.234 565.496,174.901 564,181.5C 560.86,188.09 556.193,189.757 550,186.5C 549.333,174.167 549.333,161.833 550,149.5C 550.717,148.956 551.217,148.289 551.5,147.5 Z"/></g>
<g><path style="opacity:0.98" fill="#e1e7ef" d="M 392.5,137.5 C 395.119,137.232 397.619,137.565 400,138.5C 400.169,146.188 400.669,153.855 401.5,161.5C 409.801,152.196 418.634,151.53 428,159.5C 428.973,161.392 429.64,163.392 430,165.5C 430.333,173.167 430.667,180.833 431,188.5C 432.633,190.453 433.799,192.62 434.5,195C 434.167,195.833 433.833,196.667 433.5,197.5C 426.31,199.511 418.977,200.011 411.5,199C 409.671,198.727 408.171,197.893 407,196.5C 407.908,193.294 408.908,189.961 410,186.5C 410.839,181.079 410.506,175.746 409,170.5C 406.633,167.068 403.966,166.735 401,169.5C 400.333,176.167 400.333,182.833 401,189.5C 403.916,192.275 404.082,195.108 401.5,198C 394.582,199.551 387.582,199.884 380.5,199C 377.189,198.705 375.189,197.038 374.5,194C 376.381,191.773 377.881,189.273 379,186.5C 380.861,174.82 380.861,163.154 379,151.5C 372.758,147.265 373.258,143.765 380.5,141C 384.647,139.891 388.647,138.724 392.5,137.5 Z"/></g>
<g><path style="opacity:0.952" fill="#6aa4ed" d="M 613.5,153.5 C 628.726,150.826 639.226,156.492 645,170.5C 647.382,184.569 641.882,194.069 628.5,199C 620.824,200.954 613.158,200.954 605.5,199C 594.026,193.272 589.86,184.106 593,171.5C 596.725,161.898 603.559,155.898 613.5,153.5 Z M 616.5,165.5 C 617.496,165.414 618.329,165.748 619,166.5C 622.56,172.738 623.893,179.404 623,186.5C 620.006,187.89 618.006,186.89 617,183.5C 615.675,179.2 614.508,174.866 613.5,170.5C 614.26,168.64 615.26,166.973 616.5,165.5 Z"/></g>
<g><path style="opacity:0.953" fill="#6ba4ed" d="M 665.5,153.5 C 676.419,151.755 685.252,155.088 692,163.5C 695.367,168.894 695.2,174.061 691.5,179C 683.841,179.5 676.174,179.666 668.5,179.5C 670.208,185.526 674.208,187.693 680.5,186C 683.546,183.826 686.88,183.159 690.5,184C 693.441,188.834 692.441,192.834 687.5,196C 678.934,200.66 669.934,201.66 660.5,199C 648.787,192.404 644.621,182.571 648,169.5C 651.503,161.492 657.336,156.159 665.5,153.5 Z M 669.5,163.5 C 673.478,162.982 675.311,164.648 675,168.5C 668.54,170.984 666.707,169.317 669.5,163.5 Z"/></g>
<g><path style="opacity:0.98" fill="#e1e7ef" d="M 346.5,153.5 C 362.175,153.519 370.842,161.186 372.5,176.5C 371.66,186.861 366.327,194.027 356.5,198C 342.146,203.211 330.646,199.711 322,187.5C 318.311,167.682 326.478,156.349 346.5,153.5 Z M 342.5,165.5 C 345.833,165.027 348,166.36 349,169.5C 351.432,175.573 351.932,181.74 350.5,188C 348.299,188.825 346.466,188.325 345,186.5C 341.788,179.704 340.955,172.704 342.5,165.5 Z"/></g>
<g><path style="opacity:0.975" fill="#e1e7ef" d="M 453.5,154.5 C 455.924,154.192 458.257,154.526 460.5,155.5C 461.041,157.535 461.708,159.535 462.5,161.5C 464.65,159.851 466.65,158.018 468.5,156C 479.757,151.882 487.257,155.382 491,166.5C 491.333,173.167 491.667,179.833 492,186.5C 493.199,189.018 494.365,191.518 495.5,194C 495.561,195.711 494.894,197.044 493.5,198C 486.247,199.557 478.914,199.89 471.5,199C 470.069,198.535 468.903,197.701 468,196.5C 468.107,193.267 469.107,190.267 471,187.5C 471.804,181.431 471.471,175.431 470,169.5C 466.606,167.725 463.94,168.392 462,171.5C 460.749,179.456 461.583,187.122 464.5,194.5C 464.471,196.029 463.804,197.196 462.5,198C 455.247,199.557 447.914,199.89 440.5,199C 435.349,196.196 435.183,193.03 440,189.5C 440.831,182.476 440.664,175.476 439.5,168.5C 435.037,165.955 434.704,163.122 438.5,160C 443.571,158.035 448.571,156.202 453.5,154.5 Z"/></g>
<g><path style="opacity:0.022" fill="#eaeaea" d="M 6.5,175.5 C 7.57346,176.251 7.74012,177.251 7,178.5C 6.51722,177.552 6.35055,176.552 6.5,175.5 Z"/></g>
</svg>
